<?xml version="1.0" encoding="UTF-8"?>
<svg id="Capa_1" data-name="Capa 1" xmlns="http://www.w3.org/2000/svg" viewBox="0 0 92.5222645 74">
  <defs>
    <style>
      .cls-1 {
        fill: #fff;
      }
    </style>
  </defs>
  <path class="cls-1" d="M20.4508727,38.3803522c-2.4365415,2.3402711-4.428342,4.9190851-6.1755087,7.9110537,6.2562983,10.0287307,15.0610447,16.3267294,26.8846828,17.9779318,11.7669345,1.6432801,21.9720593-1.9296852,30.8320887-9.9746667,1.4274097,3.3840051,2.0048579,6.8216102,2.0731103,10.3167603C51.3474122,82.3613994,15.8606034,74.2735572,3.8567003,46.1108563c5.0817998-11.1270169,13.2585369-19.1860386,24.8070446-24.2297527-1.990624,7.9886888-.3079921,14.7500251,5.8662881,20.0468383,3.9037318,3.3489387,8.5545663,4.6618087,13.6612344,4.1507849,10.5556146-1.0562817,19.1735193-11.4660777,15.6476127-24.1231731,3.7285189,1.4459215,6.9724682,3.3932919,10.0507806,5.649398,3.1067723,2.2769683,5.8209893,4.9722929,8.4235758,8.0615224,.9169494-4.2418359,1.1072526-8.2973725,.5590565-12.5819091-12.5075305-10.5777538-26.9797023-15.3194902-43.3916409-13.3063363C23.0736557,11.7907825,10.190793,19.9586605,.3552839,33.5766774-.2474908,28.3281665-.0909437,23.4461444,.8836977,18.6351594c23.8666714-24.2118174,65.1321439-25.4701471,90.7958828-.0110593,2.4722603,13.8489054-.4552534,26.5181644-9.3122655,38.1445937-1.7843662-7.2220011-5.0785684-13.2965253-10.2974993-18.3997851-5.2255736,10.7968069-13.6221942,17.0497841-25.7259328,17.0819777-12.1397376,.0322896-20.5674551-6.1820282-25.8930103-17.0705343Z"/>
  <path class="cls-1" d="M46.1825359,37.016163c-5.1492618-.0216304-9.2144848-4.1214962-9.1974897-9.2758551,.0171711-5.2062904,4.1588499-9.3144786,9.3540989-9.2784559,5.1835961,.0359387,9.2229163,4.1826423,9.1906789,9.4350344-.0314131,5.1195126-4.1535597,9.1410991-9.347288,9.1192766Z"/>
</svg>